<?xml version="1.0" standalone="no"?><!DOCTYPE svg PUBLIC "-//W3C//DTD SVG 1.1//EN" "http://www.w3.org/Graphics/SVG/1.1/DTD/svg11.dtd"><svg t="1620282808001" class="icon" viewBox="0 0 1024 1024" version="1.1" xmlns="http://www.w3.org/2000/svg" p-id="2602" xmlns:xlink="http://www.w3.org/1999/xlink" width="200" height="200"><defs><style type="text/css"></style></defs><path d="M980.352 469.888h-426.24V43.648c0-23.488-19.2-42.624-42.624-42.624-23.424 0-42.624 19.2-42.624 42.624v426.24H42.624c-23.424 0-42.624 19.2-42.624 42.624 0 23.424 19.2 42.624 42.624 42.624h426.24v426.24c0 23.424 19.2 42.624 42.624 42.624 23.488 0 42.624-19.2 42.624-42.624v-426.24h426.24c23.488 0 42.624-19.2 42.624-42.624 0-23.424-19.2-42.624-42.624-42.624" fill="#FFFFFF" p-id="2603"></path></svg>