<?xml version="1.0" standalone="no"?><!DOCTYPE svg PUBLIC "-//W3C//DTD SVG 1.1//EN" "http://www.w3.org/Graphics/SVG/1.1/DTD/svg11.dtd"><svg t="1620282256179" class="icon" viewBox="0 0 1251 1024" version="1.1" xmlns="http://www.w3.org/2000/svg" p-id="1828" xmlns:xlink="http://www.w3.org/1999/xlink" width="244.3359375" height="200"><defs><style type="text/css"></style></defs><path d="M290.986667 562.176h881.379555c43.690667 0 79.132444-35.271111 79.132445-78.677333v-4.380445c0-43.406222-35.441778-78.734222-79.132445-78.734222H288.995556l263.964444-264.931556a78.279111 78.279111 0 0 0 0-110.535111l-0.568889-0.568889a78.961778 78.961778 0 0 0-110.933333-0.796444l-0.796445 0.796444L11.434667 455.111111a39.253333 39.253333 0 0 0 0 55.296l83.968 84.309333 338.488889 339.399112a79.644444 79.644444 0 0 0 112.071111 0.625777l3.185777-3.185777a78.165333 78.165333 0 0 0 0-110.648889L290.986667 562.176z" fill="#333333" p-id="1829"></path></svg>