<?xml version="1.0" standalone="no"?><!DOCTYPE svg PUBLIC "-//W3C//DTD SVG 1.1//EN" "http://www.w3.org/Graphics/SVG/1.1/DTD/svg11.dtd"><svg
        class="icon" viewBox="0 0 1024 1024" version="1.1" xmlns="http://www.w3.org/2000/svg" p-id="1753" xmlns:xlink="http://www.w3.org/1999/xlink" width="200" height="200"><defs><style type="text/css"></style></defs><path d="M511.995246 0a409.596197 409.596197 0 0 1 406.377941 358.396672h3.218255a102.399049 102.399049 0 0 1 102.106481 94.71912L1023.990492 460.795721v102.399049a102.399049 102.399049 0 0 1-94.719121 102.106481L921.591442 665.593819h-102.399049V409.596197a307.197147 307.197147 0 1 0-614.394295 0v255.997622a204.798098 204.798098 0 0 0 204.798099 204.798099h13.677587a102.399049 102.399049 0 1 1 0 102.399049H409.596197a307.197147 307.197147 0 0 1-306.977721-295.713826L102.399049 665.593819A102.399049 102.399049 0 0 1 0 563.19477V460.795721a102.399049 102.399049 0 0 1 102.399049-102.399049h3.145114A409.596197 409.596197 0 0 1 511.995246 0zM332.79691 409.596197a76.799287 76.799287 0 1 1 0 153.598573 76.799287 76.799287 0 0 1 0-153.598573z m358.396672 0a76.799287 76.799287 0 1 1 0 153.598573 76.799287 76.799287 0 0 1 0-153.598573z" fill="#3A5DAF" p-id="1754"></path></svg>
