<?xml version="1.0" standalone="no"?><!DOCTYPE svg PUBLIC "-//W3C//DTD SVG 1.1//EN" "http://www.w3.org/Graphics/SVG/1.1/DTD/svg11.dtd"><svg t="1620282634754" class="icon" viewBox="0 0 1024 1024" version="1.1" xmlns="http://www.w3.org/2000/svg" p-id="2218" xmlns:xlink="http://www.w3.org/1999/xlink" width="200" height="200"><defs><style type="text/css"></style></defs><path d="M37.888 750.299429a509.513143 509.513143 0 0 1 102.838857-161.645715 477.696 477.696 0 0 1 152.576-108.982857c14.482286-6.436571 29.257143-12.141714 44.105143-17.042286a264.192 264.192 0 0 1-28.086857-25.6A262.070857 262.070857 0 0 1 238.445714 256c0-68.388571 25.088-132.608 70.802286-180.955429A233.252571 233.252571 0 0 1 480.109714 0c64.585143 0 125.147429 26.624 170.788572 75.044571 45.714286 48.347429 70.802286 112.566857 70.802285 180.955429 0 68.461714-25.088 132.681143-70.802285 181.028571a254.537143 254.537143 0 0 1-28.16 25.6 477.769143 477.769143 0 0 1 196.754285 126.025143 509.513143 509.513143 0 0 1 102.765715 161.645715 531.748571 531.748571 0 0 1 37.741714 197.997714c0 41.691429-32.036571 75.702857-71.460571 75.702857H71.460571C32.109714 1024 0 990.061714 0 948.297143a536.137143 536.137143 0 0 1 37.888-197.997714zM653.019429 256c0-100.937143-77.604571-183.149714-172.909715-183.149714S307.273143 155.062857 307.273143 256s77.531429 183.222857 172.836571 183.222857S652.946286 356.937143 652.946286 256zM71.68 951.149714h817.005714c1.462857 0 2.633143-1.243429 2.633143-2.925714 0-116.297143-42.715429-225.645714-120.393143-307.931429-77.677714-82.358857-180.882286-127.634286-290.742857-127.634285-109.714286 0-212.992 45.275429-290.669714 127.561143C111.835429 722.651429 69.046857 831.926857 69.046857 948.297143a2.633143 2.633143 0 0 0 2.633143 2.852571z" fill="#304281" p-id="2219"></path><path d="M448.804571 644.388571l-21.357714-48.128a14.409143 14.409143 0 0 1 13.092572-20.260571l80.676571 0.585143a14.409143 14.409143 0 0 1 12.653714 20.845714l-23.186285 46.957714 33.28 116.809143a20.187429 20.187429 0 0 1-4.827429 19.456l-44.617143 45.641143a18.724571 18.724571 0 0 1-26.624 0.219429l-45.348571-45.056a20.041143 20.041143 0 0 1-5.12-19.309715l31.451428-117.76z" fill="#7AD1CA" p-id="2220"></path></svg>