<?xml version="1.0" standalone="no"?><!DOCTYPE svg PUBLIC "-//W3C//DTD SVG 1.1//EN" "http://www.w3.org/Graphics/SVG/1.1/DTD/svg11.dtd"><svg t="1620282621000" class="icon" viewBox="0 0 1024 1024" version="1.1" xmlns="http://www.w3.org/2000/svg" p-id="1955" xmlns:xlink="http://www.w3.org/1999/xlink" width="200" height="200"><defs><style type="text/css"></style></defs><path d="M80.842105 747.388905a507.338834 507.338834 0 0 1 102.32717-160.955904 475.657468 475.657468 0 0 1 151.924893-108.517781c14.420484-6.409104 29.13229-12.0899 43.916927-16.969559a263.06458 263.06458 0 0 1-27.966998-25.490753 260.952489 260.952489 0 0 1-70.500143-180.256046c0-68.096728 24.980939-132.042105 70.500143-180.183215A232.257183 232.257183 0 0 1 521.103841 0.291323c64.309531 0 124.613371 26.510384 170.059744 74.724324 45.519203 48.14111 70.500142 112.086486 70.500142 180.183215 0 68.169559-24.980939 132.114936-70.500142 180.256046a253.450925 253.450925 0 0 1-27.966999 25.490753 475.730299 475.730299 0 0 1 195.914652 125.48734 507.338834 507.338834 0 0 1 102.327169 160.955904 529.479374 529.479374 0 0 1 37.507823 197.152774c0 41.513514-31.899858 75.379801-71.155618 75.3798H114.198578C75.015647 1019.921479 42.970128 986.128023 42.970128 944.614509a533.849218 533.849218 0 0 1 37.726316-197.152774z m612.36074-492.190043c0-100.506401-77.200569-182.368137-172.099004-182.368137S349.004836 154.692461 349.004836 255.198862c0 100.579232 77.200569 182.440967 172.099005 182.440967s172.099004-81.861735 172.099004-182.440967z m-578.785775 692.183215h813.519203c1.456615 0 2.621906-1.238122 2.621906-2.840398 0-115.800853-42.533144-224.755619-119.879374-306.763016-77.34623-81.934566-180.110384-127.016785-289.502134-127.016785-109.246088 0-212.083073 45.082219-289.429303 127.016785-77.34623 82.007397-119.952205 190.889331-119.952204 306.763016a2.549075 2.549075 0 0 0 2.621906 2.840398z" fill="#DDDDDD" p-id="1956"></path><path d="M492.117212 646.445519l-21.266572-47.922617a14.347653 14.347653 0 0 1 13.0367-20.174111l80.33229 0.655476a14.347653 14.347653 0 0 1 12.599716 20.683926l-23.08734 46.757326 33.13798 116.383499a20.10128 20.10128 0 0 1-4.806828 19.300143l-44.426743 45.519203a18.644666 18.644666 0 0 1-26.510384 0.218492l-45.155049-44.863727a19.955619 19.955619 0 0 1-5.098151-19.300142l31.317212-117.257468z" fill="#DDDDDD" p-id="1957"></path></svg>