<?xml version="1.0" standalone="no"?><!DOCTYPE svg PUBLIC "-//W3C//DTD SVG 1.1//EN" "http://www.w3.org/Graphics/SVG/1.1/DTD/svg11.dtd"><svg t="1620294886402" class="icon" viewBox="0 0 1024 1024" version="1.1" xmlns="http://www.w3.org/2000/svg" p-id="2096" xmlns:xlink="http://www.w3.org/1999/xlink" width="200" height="200"><defs><style type="text/css"></style></defs><path d="M18.28571399 18.28571399m146.28571502 0l694.857142 0q146.28571399 0 146.28571497 146.28571502l0 694.857142q0 146.28571399-146.28571497 146.28571497l-694.857142 0q-146.28571399 0-146.28571499-146.28571497l0-694.857142q0-146.28571399 146.28571499-146.28571499Z" fill="#EFF1FF" p-id="2097"></path><path d="M570.33142899 406.82057099a16.71314301 16.71314301 0 0 1 16.713142 16.71314303v347.61142899h26.148572c43.15428601 0 78.22628598-33.86514299 79.652571-76.068572v-271.506285a16.71314301 16.71314301 0 0 1 33.389715-1.609143l0.073142 1.60914297v268.80000003c0 60.96457101-49.00571399 110.51885701-109.97028498 112.164571l-3.14514302 0.036572h-241.700572c-61.36685701 0-111.39657101-48.53028601-113.005714-109.092572l-0.073143-3.072v-268.83657103a16.71314301 16.71314301 0 0 1 33.353143-1.60914299l0.07314302 1.60914302v268.79999997c0 42.60571399 34.19428601 77.34857099 76.982857 78.73828501l2.66971398 0.03657202h37.302858v-347.61142902a16.71314301 16.71314301 0 1 1 33.426285 0v347.61142902h111.39657202v-347.61142902a16.71314301 16.71314301 0 0 1 16.71314298-16.713143z m182.857142-86.82057099c13.01942901 0 23.22285701 7.31428601 23.22285802 16.71314301 0 9.32571399-10.20342901 16.67657099-23.186286 16.67657098H242.65142901c-13.01942901 0-23.22285701-7.31428601-23.222858-16.676571s10.24-16.71314301 23.222858-16.71314299h510.537142z m-141.82399998-100.42514301c12.90971399-1.35314299 23.95428601 5.92457099 25.05142899 16.45714301 1.09714299 10.60571402-8.192 19.968-21.10171399 21.32114301l-230.80228601 24.24685698c-12.94628601 1.35314299-23.95428601-5.85142899-25.08800001-16.45714298-1.09714299-10.56914301 8.192-19.93142899 21.10171403-21.28457103l230.83885699-24.28342897z" fill="#6E8ED8" p-id="2098"></path></svg>