<?xml version="1.0" standalone="no"?><!DOCTYPE svg PUBLIC "-//W3C//DTD SVG 1.1//EN" "http://www.w3.org/Graphics/SVG/1.1/DTD/svg11.dtd"><svg t="1620294872692" class="icon" viewBox="0 0 1024 1024" version="1.1" xmlns="http://www.w3.org/2000/svg" p-id="1968" xmlns:xlink="http://www.w3.org/1999/xlink" width="200" height="200"><defs><style type="text/css"></style></defs><path d="M18.28571399 18.28571399m146.28571502 0l694.857142 0q146.28571399 0 146.28571497 146.28571502l0 694.857142q0 146.28571399-146.28571497 146.28571497l-694.857142 0q-146.28571399 0-146.28571499-146.28571497l0-694.857142q0-146.28571399 146.28571499-146.28571499Z" fill="#EFF1FF" p-id="1969"></path><path d="M782.66514301 741.12a21.39428601 21.39428601 0 1 1 0 42.78857101H240.82285701a21.39428601 21.39428601 0 1 1 0-42.78857101H782.62857099z m-0.21942902-387.94971399L442.98971399 692.66285701l-132.31542798 13.531429 13.53142798-132.38857202 295.13142902-295.13142798L663.62514301 234.34971402c19.93142899-19.93142899 54.63771402-19.93142899 74.53257098-3e-8l44.25142902 44.25142902c9.94742899 9.87428601 15.50628601 23.296 15.469714 37.30285699 0 14.04342901-5.48571399 27.28228598-15.43314302 37.22971399zM358.58285698 658.28571399l64.91428603-6.582857 269.27542798-269.31199998L634.51428601 324.02285701l-269.27542902 269.275429L358.54628601 658.28571399z m342.30857203-396.54399997a9.83771399 9.83771399 0 0 0-7.02171502 2.92571497l-29.14742798 29.147428 58.29485698 58.33142902 29.147428-29.184a9.91085699 9.91085699 0 0 0 0-14.00685702l-44.251428-44.288a9.87428601 9.87428601 0 0 0-7.021714-2.92571497z" fill="#6E8ED8" p-id="1970"></path></svg>