<?xml version="1.0" standalone="no"?><!DOCTYPE svg PUBLIC "-//W3C//DTD SVG 1.1//EN" "http://www.w3.org/Graphics/SVG/1.1/DTD/svg11.dtd"><svg t="1619517057750" class="icon" viewBox="0 0 1024 1024" version="1.1" xmlns="http://www.w3.org/2000/svg" p-id="1910" xmlns:xlink="http://www.w3.org/1999/xlink" width="200" height="200"><defs><style type="text/css"></style></defs><path d="M729.526857 482.742857c-75.702857 0-137.216 61.44-137.216 137.142857a137.216 137.216 0 0 0 274.285714 0c0-75.702857-61.44-137.142857-137.069714-137.142857z m0 210.870857A73.947429 73.947429 0 0 1 655.433143 619.885714a73.947429 73.947429 0 0 1 147.821714 0 73.728 73.728 0 0 1-73.874286 73.728z" fill="#7AD1CA" p-id="1911"></path><path d="M887.588571 327.094857a49.883429 49.883429 0 0 0 8.850286-24.137143l0.146286-1.755428a50.102857 50.102857 0 0 0-0.731429-16.310857c-1.462857-7.533714-8.777143-20.992-21.796571-33.865143L666.989714 56.612571a66.706286 66.706286 0 0 0-14.848-10.605714L641.536 41.691429 640.804571 41.325714 640.731429 41.252571a75.190857 75.190857 0 0 0-8.192-1.974857L631.954286 39.131429a91.209143 91.209143 0 0 0-8.338286-0.877715H623.250286a68.169143 68.169143 0 0 0-40.740572 11.702857l-0.365714 0.219429-2.925714 2.121143-0.731429 0.512-3.145143 2.633143-26.038857 24.356571L426.057143 7.899429l-0.731429-0.292572A67.437714 67.437714 0 0 0 340.041143 33.645714L160.256 325.632h-29.330286c-40.374857 0-72.265143 9.142857-94.939428 27.282286l-0.731429 0.585143c-1.462857 1.170286-2.779429 2.340571-4.096 3.584l-0.438857 0.219428a94.208 94.208 0 0 0-20.699429 28.16l0.146286 0.877714a71.753143 71.753143 0 0 0-4.534857 11.849143c-0.292571 0.731429-0.365714 1.316571-0.512 1.828572a70.948571 70.948571 0 0 0-2.194286 9.142857v0.219428l-0.731428 3.437715C1.389714 418.377143 0.804571 424.009143 0.804571 429.494857v491.081143c0 13.165714 2.706286 38.4 20.699429 61.220571 22.162286 28.013714 59.026286 42.203429 109.714286 42.203429h732.306285c50.614857 0 87.625143-14.189714 109.641143-42.203429 17.993143-22.820571 20.699429-48.201143 20.699429-61.220571V429.494857c0-13.165714-2.706286-38.473143-20.699429-61.220571-19.309714-24.502857-48.054857-38.326857-85.577143-41.179429zM370.176 326.070857l247.661714-223.524571a4.242286 4.242286 0 0 1 5.778286 0.146285l206.774857 194.048a4.242286 4.242286 0 0 1 0.146286 6.217143l-23.552 23.113143H370.176z m-135.606857 0L393.874286 67.145143a4.388571 4.388571 0 0 1 5.12-1.828572l99.84 60.416-222.573715 199.826286-0.512 0.512h-41.179428z m628.809143 634.733714H131.218286c-44.617143 0-67.291429-13.531429-67.291429-40.228571V429.494857c0-4.754286 0.731429-8.923429 1.901714-12.653714 7.533714-22.820571 39.716571-27.648 65.243429-27.648h732.306286c44.544 0 67.218286 13.531429 67.218285 40.155428v491.081143c0 26.843429-22.528 40.374857-67.291428 40.374857z" fill="#304281" p-id="1912"></path></svg>