<?xml version="1.0" standalone="no"?><!DOCTYPE svg PUBLIC "-//W3C//DTD SVG 1.1//EN" "http://www.w3.org/Graphics/SVG/1.1/DTD/svg11.dtd"><svg t="1620282860129" class="icon" viewBox="0 0 1024 1024" version="1.1" xmlns="http://www.w3.org/2000/svg" p-id="2729" xmlns:xlink="http://www.w3.org/1999/xlink" width="200" height="200"><defs><style type="text/css"></style></defs><path d="M139.190857 960.731429l799.012572-0.731429V64L139.190857 64.731429v896zM166.107429 1.462857h743.643428c51.273143 0 92.964571 41.691429 92.964572 92.891429v836.754285c0 51.2-41.691429 92.891429-92.891429 92.891429H166.034286C114.834286 1024 73.142857 982.308571 73.142857 931.108571V94.354286C73.142857 43.154286 114.834286 1.462857 166.034286 1.462857zM282.331429 280.356571h348.598857c12.726857 0 23.186286 10.459429 23.186285 23.186286a23.332571 23.332571 0 0 1-23.186285 23.259429H282.331429a23.332571 23.332571 0 0 1-23.259429-23.259429c0-12.726857 10.459429-23.186286 23.259429-23.186286z m0 139.410286h162.669714c12.726857 0 23.186286 10.459429 23.186286 23.259429a23.332571 23.332571 0 0 1-23.186286 23.186285H282.331429a23.332571 23.332571 0 0 1-23.259429-23.186285c0-12.8 10.459429-23.259429 23.259429-23.259429z" fill="#DDDDDD" p-id="2730"></path><path d="M468.187429 582.436571c25.746286 0 46.518857 20.772571 46.518857 46.518858v162.669714a46.445714 46.445714 0 1 1-92.964572 0V628.955429c0-25.746286 20.772571-46.518857 46.445715-46.518858zM328.777143 698.660571c25.746286 0 46.445714 20.772571 46.445714 46.445715v46.518857a46.445714 46.445714 0 1 1-92.891428 0v-46.518857c0-25.673143 20.772571-46.445714 46.445714-46.445715z m278.893714-139.483428c25.673143 0 46.445714 20.772571 46.445714 46.518857v185.929143a46.445714 46.445714 0 1 1-92.891428 0V605.622857c0-25.746286 20.699429-46.518857 46.445714-46.518857z m139.410286-139.410286c25.746286 0 46.518857 20.772571 46.518857 46.445714v325.412572a46.445714 46.445714 0 1 1-92.964571 0V466.212571c0-25.673143 20.772571-46.445714 46.445714-46.445714z" fill="#DDDDDD" p-id="2731"></path></svg>