<?xml version="1.0" standalone="no"?><!DOCTYPE svg PUBLIC "-//W3C//DTD SVG 1.1//EN" "http://www.w3.org/Graphics/SVG/1.1/DTD/svg11.dtd"><svg t="1620283046467" class="icon" viewBox="0 0 1024 1024" version="1.1" xmlns="http://www.w3.org/2000/svg" p-id="3378" xmlns:xlink="http://www.w3.org/1999/xlink" width="200" height="200"><defs><style type="text/css"></style></defs><path d="M904.34160031 288.8h87.27999938v486.07999969c0 74.16-56.71999969 130.87999969-130.8799997 130.88000062H162.90159969A128.56000031 128.56000031 0 0 1 32.02159999 774.87999969V164.23999999C32.02159999 90.08 88.74159969 33.36000031 162.90159969 33.36000031h122.08000032c26.16 0 48 8.80000031 65.4400003 26.16l135.1999997 148.32h462.4000003c26.16 0 43.60000031 14.95999969 43.59999938 43.59999938v37.36000031H485.62160001c-26.16 0-48-2.4-65.3599997-19.84000031l-135.20000062-148.32H162.82160001c-26.16 0-43.68 17.44000031-43.68000002 43.60000032v610.63999968c0 26.16 17.52 43.60000031 43.68 43.60000031h697.84000032c26.16 0 43.60000031-17.44000031 43.59999937-43.60000031V288.8z" fill="#575859" p-id="3379"></path><path d="M354.82160001 164.23999999V77.04000031h466.7200003c91.60000031 0 170.08000031 78.40000031 170.07999938 170.07999938h-87.1999997c0-43.60000031-39.28000031-82.87999969-82.87999968-82.8799997H354.82160001z" fill="#575859" p-id="3380"></path><path d="M250.10160031 731.19999969c-26.16 0-43.60000031-17.35999969-43.6000003-43.51999968 0-26.16 17.44000031-43.68 43.6000003-43.68000001h174.48c26.16 0 43.60000031 17.52 43.59999938 43.68000001 0 26.16-17.44000031 43.60000031-43.59999938 43.6000003h-174.4000003z" fill="#2F9B98" p-id="3381"></path></svg>