<?xml version="1.0" standalone="no"?><!DOCTYPE svg PUBLIC "-//W3C//DTD SVG 1.1//EN" "http://www.w3.org/Graphics/SVG/1.1/DTD/svg11.dtd"><svg t="1619451456872" class="icon" viewBox="0 0 1024 1024" version="1.1" xmlns="http://www.w3.org/2000/svg" p-id="2346" xmlns:xlink="http://www.w3.org/1999/xlink" width="200" height="200"><defs><style type="text/css"></style></defs><path d="M587.849143 996.571429H435.492571a32.621714 32.621714 0 0 1-32.621714-32.621715V691.931429c0-59.977143 48.859429-108.836571 108.836572-108.836572s108.763429 48.786286 108.763428 108.763429v272.164571c0 18.066286-14.628571 32.621714-32.621714 32.621714zM468.114286 931.328h87.113143V691.785143a43.593143 43.593143 0 0 0-87.04 0v239.542857z" fill="#7AD1CA" p-id="2347"></path><path d="M990.573714 495.908571a33.060571 33.060571 0 0 1-20.114285-6.875428L528.310857 143.945143a32.182857 32.182857 0 0 0-35.108571 1.316571l-440.393143 343.771429a32.694857 32.694857 0 0 1-40.228572-51.492572l442.148572-345.014857a98.011429 98.011429 0 0 1 112.128-1.316571l443.830857 346.331428a32.621714 32.621714 0 0 1-20.114286 58.368z" fill="#304281" p-id="2348"></path><path d="M860.013714 996.571429H163.328a76.288 76.288 0 0 1-76.214857-76.141715V419.693714a32.621714 32.621714 0 1 1 65.316571 0v500.736c0 5.997714 4.900571 10.971429 10.898286 10.971429h696.612571a10.971429 10.971429 0 0 0 10.971429-10.971429V419.693714a32.621714 32.621714 0 1 1 65.170286 0v500.736a76.214857 76.214857 0 0 1-76.068572 76.141715z" fill="#304281" p-id="2349"></path></svg>