<?xml version="1.0" standalone="no"?><!DOCTYPE svg PUBLIC "-//W3C//DTD SVG 1.1//EN" "http://www.w3.org/Graphics/SVG/1.1/DTD/svg11.dtd"><svg t="1620282769900" class="icon" viewBox="0 0 1024 1024" version="1.1" xmlns="http://www.w3.org/2000/svg" p-id="2474" xmlns:xlink="http://www.w3.org/1999/xlink" width="200" height="200"><defs><style type="text/css"></style></defs><path d="M996.937143 406.747429l-111.762286-109.202286a88.283429 88.283429 0 0 0-61.952-25.234286H679.424V215.771429C679.497143 135.533714 614.180571 70.217143 533.942857 70.217143H145.554286C65.316571 70.217143 0 135.533714 0 215.771429v514.706285c0 67.730286 55.076571 122.806857 122.806857 122.806857h24.722286a31.817143 31.817143 0 0 0 0-63.561142H122.88a59.318857 59.318857 0 0 1-59.245714-59.245715V215.771429c0-45.202286 36.790857-81.993143 81.993143-81.993143H533.942857c45.202286 0 81.993143 36.790857 81.993143 81.993143v573.952H425.325714a31.817143 31.817143 0 0 0 0 63.561142h265.508572a31.817143 31.817143 0 0 0 0-63.561142H679.497143V335.872h143.798857a24.868571 24.868571 0 0 1 17.554286 7.168l111.762285 109.202286a25.307429 25.307429 0 0 1 7.606858 17.92l0.219428 319.634285a31.817143 31.817143 0 0 0 0 63.488 63.414857 63.414857 0 0 0 63.341714-63.341714V470.235429c0-23.771429-9.801143-46.884571-26.697142-63.488z" fill="#304281" p-id="2475"></path><path d="M288.914286 967.314286c-80.457143 0-145.773714-65.389714-145.773715-145.773715 0-80.384 65.389714-145.700571 145.773715-145.700571 80.384 0 145.700571 65.389714 145.700571 145.700571a145.92 145.92 0 0 1-145.700571 145.773715z m0-227.986286a82.285714 82.285714 0 0 0 0 164.352 82.285714 82.285714 0 0 0 0-164.352z m530.870857 223.597714a141.458286 141.458286 0 0 1-141.312-141.385143c0-77.970286 63.341714-141.312 141.312-141.312 77.970286 0 141.385143 63.341714 141.385143 141.312a141.458286 141.458286 0 0 1-141.385143 141.385143z m0-219.209143a77.897143 77.897143 0 0 0 0 155.574858 77.897143 77.897143 0 0 0 0-155.574858z" fill="#7AD1CA" p-id="2476"></path></svg>