<?xml version="1.0" standalone="no"?><!DOCTYPE svg PUBLIC "-//W3C//DTD SVG 1.1//EN" "http://www.w3.org/Graphics/SVG/1.1/DTD/svg11.dtd"><svg t="1620282758639" class="icon" viewBox="0 0 1024 1024" version="1.1" xmlns="http://www.w3.org/2000/svg" p-id="2346" xmlns:xlink="http://www.w3.org/1999/xlink" width="200" height="200"><defs><style type="text/css"></style></defs><path d="M996.937143 413.988571l-111.762286-109.202285a88.283429 88.283429 0 0 0-61.952-25.307429H679.424V223.085714c0-80.310857-65.243429-145.554286-145.554286-145.554285H145.554286C65.316571 77.385143 0 142.628571 0 222.939429v507.465142c0 67.730286 55.076571 122.806857 122.806857 122.806858h24.722286a31.817143 31.817143 0 0 0 0-63.561143H122.88a59.318857 59.318857 0 0 1-59.245714-59.245715V223.012571c0-45.275429 36.790857-82.066286 81.993143-82.066285H533.942857c45.202286 0 81.993143 36.790857 81.993143 82.066285v566.710858H425.325714a31.817143 31.817143 0 0 0 0 63.561142h265.508572a31.817143 31.817143 0 0 0 0-63.561142H679.497143V343.04h143.798857a24.868571 24.868571 0 0 1 17.554286 7.168l111.762285 109.202286a25.307429 25.307429 0 0 1 7.606858 17.92l0.219428 312.393143a31.817143 31.817143 0 0 0 0 63.561142 63.414857 63.414857 0 0 0 63.341714-63.341714V477.403429c0-23.698286-9.801143-46.811429-26.697142-63.414858z" fill="#DDDDDD" p-id="2347"></path><path d="M288.914286 967.314286c-80.457143 0-145.773714-65.389714-145.773715-145.773715 0-80.384 65.389714-145.700571 145.773715-145.700571 80.384 0 145.700571 65.389714 145.700571 145.700571a145.92 145.92 0 0 1-145.700571 145.773715z m0-227.986286a82.285714 82.285714 0 0 0 0 164.352 82.285714 82.285714 0 0 0 0-164.352z m530.870857 223.597714a141.458286 141.458286 0 0 1-141.312-141.385143c0-77.970286 63.341714-141.312 141.312-141.312 77.970286 0 141.385143 63.341714 141.385143 141.312a141.458286 141.458286 0 0 1-141.385143 141.385143z m0-219.209143a77.897143 77.897143 0 0 0 0 155.574858 77.897143 77.897143 0 0 0 0-155.574858z" fill="#DDDDDD" p-id="2348"></path></svg>