<?xml version="1.0" standalone="no"?><!DOCTYPE svg PUBLIC "-//W3C//DTD SVG 1.1//EN" "http://www.w3.org/Graphics/SVG/1.1/DTD/svg11.dtd"><svg t="1619604323988" class="icon" viewBox="0 0 1024 1024" version="1.1" xmlns="http://www.w3.org/2000/svg" p-id="2302" xmlns:xlink="http://www.w3.org/1999/xlink" width="200" height="200"><defs><style type="text/css"></style></defs><path d="M517.81624973 901.53125027a372.515625 372.515625 0 0 1-265.00781223-109.6875 373.92187527 373.92187527 0 0 1 47.10937473-569.3203125 29.39062473 29.39062473 0 0 1 34.171875 47.53124973c-40.21875027 28.82812527-73.12500027 66.58593777-96.32812446 110.39062473a310.921875 310.921875 0 0 0-36.14062554 146.46093804c0 84.375 32.90625 163.82812527 92.6015625 223.52343696a314.0859375 314.0859375 0 0 0 223.59375 92.6015625c84.375 0 163.82812527-32.83593777 223.59375-92.6015625a313.80468777 313.80468777 0 0 0 92.6015625-223.52343696 310.7109375 310.7109375 0 0 0-36.14062473-146.53125027 320.06249973 320.06249973 0 0 0-96.32812527-110.17968723 29.25000027 29.25000027 0 1 1 34.171875-47.60156277 373.85156223 373.85156223 0 0 1 47.10937554 569.39062473c-70.2421875 70.31249973-165.5859375 109.82812527-265.07812527 109.6875v-0.07031223z m8.78906277-406.4765625a29.25000027 29.25000027 0 0 1-29.3203125-29.25000027V118.8125a29.39062473 29.39062473 0 0 1 58.71093723 0v346.9921875a29.25000027 29.25000027 0 0 1-29.39062473 29.25000027z" fill="#FFFFFF" p-id="2303"></path></svg>