<?xml version="1.0" standalone="no"?><!DOCTYPE svg PUBLIC "-//W3C//DTD SVG 1.1//EN" "http://www.w3.org/Graphics/SVG/1.1/DTD/svg11.dtd"><svg t="1620282213031" class="icon" viewBox="0 0 1024 1024" version="1.1" xmlns="http://www.w3.org/2000/svg" p-id="1700" xmlns:xlink="http://www.w3.org/1999/xlink" width="200" height="200"><defs><style type="text/css"></style></defs><path d="M620.982857 458.020571H275.017143a38.619429 38.619429 0 0 1-38.473143-38.473142c0-21.211429 17.334857-38.546286 38.546286-38.546286H620.982857a38.619429 38.619429 0 0 1 0 77.019428zM505.417143 622.445714H275.017143a38.619429 38.619429 0 0 1-38.473143-38.473143c0-21.211429 17.334857-38.473143 38.546286-38.473142h230.4c21.211429 0 38.473143 17.334857 38.473143 38.473142 0 21.211429-17.334857 38.473143-38.473143 38.473143z" fill="#DDDDDD" p-id="1701"></path><path d="M841.874286 101.156571h-104.082286V39.570286a38.619429 38.619429 0 0 0-38.473143-38.473143 38.619429 38.619429 0 0 0-38.546286 38.473143v61.586285h-310.857142V39.570286a38.619429 38.619429 0 0 0-38.473143-38.473143 38.619429 38.619429 0 0 0-38.473143 38.473143v61.586285H168.813714A95.817143 95.817143 0 0 0 73.142857 196.827429v731.501714A95.817143 95.817143 0 0 0 168.813714 1024h673.133715a95.817143 95.817143 0 0 0 95.670857-95.670857V196.827429a95.817143 95.817143 0 0 0-95.670857-95.670858z m18.724571 812.909715a32.914286 32.914286 0 0 1-32.914286 32.914285H183.076571a32.914286 32.914286 0 0 1-32.914285-32.914285V211.090286c0-18.285714 14.774857-32.914286 32.914285-32.914286h89.892572v74.459429c0 21.211429 17.261714 38.473143 38.473143 38.473142 21.211429 0 38.473143-17.261714 38.473143-38.473142V178.176h310.710857v74.459429c0 21.211429 17.334857 38.473143 38.473143 38.473142 21.211429 0 38.473143-17.261714 38.473142-38.473142V178.176h89.965715c18.285714 0 32.914286 14.774857 32.914285 32.914286v702.976h0.146286z" fill="#DDDDDD" p-id="1702"></path></svg>