<?xml version="1.0" standalone="no"?><!DOCTYPE svg PUBLIC "-//W3C//DTD SVG 1.1//EN" "http://www.w3.org/Graphics/SVG/1.1/DTD/svg11.dtd"><svg t="1625556932547" class="icon" viewBox="0 0 1024 1024" version="1.1" xmlns="http://www.w3.org/2000/svg" p-id="1626" xmlns:xlink="http://www.w3.org/1999/xlink" width="200" height="200"><defs><style type="text/css"></style></defs><path d="M954.733714 486.546286c-33.792-53.394286-48.420571-110.884571-57.197714-171.739429C865.645714 93.476571 647.533714-49.517714 436.224 15.945143 296.740571 59.245714 211.821714 156.525714 183.588571 300.470857c-13.165714 67.291429-25.819429 132.900571-64.585142 192.877714-39.131429 60.489143-49.737143 131.584-44.617143 203.629715 2.925714 41.691429 15.725714 79.579429 46.592 110.445714 9.289143 9.289143 18.505143 24.649143 17.993143 36.790857-3.584 87.771429 48.274286 134.144 121.782857 159.744 81.408 28.379429 164.644571 27.062857 245.028571-6.729143 21.942857-9.216 39.570286-12.580571 62.610286-1.462857 66.194286 32.182857 137.289143 32.694857 207.506286 19.894857 112.128-20.333714 161.426286-80.676571 161.792-192.585143 35.108571-25.453714 57.197714-61.147429 62.171428-105.764571 9.289143-81.554286-0.731429-160.841143-45.056-230.765714z m-45.494857 191.049143c-0.585143 20.699429-8.996571 41.106286-17.115428 75.702857l-62.098286-52.662857-59.684572 91.501714c12.507429 6.875429 27.209143 11.556571 37.156572 21.211428 13.824 13.385143 30.939429 29.037714 34.230857 46.226286 4.900571 24.795429-17.554286 39.204571-38.473143 48.566857-66.194286 29.622857-134.948571 32.914286-199.314286 0.512-46.08-23.186286-83.894857-24.722286-129.974857-0.512-60.342857 31.744-125.586286 28.013714-189.44 5.558857a100.059429 100.059429 0 0 1-19.968-9.874285c-41.837714-26.331429-42.934857-59.904-2.267428-86.966857 13.604571-9.069714 28.818286-15.725714 44.032-23.917715l-58.953143-93.184-51.712 44.105143c-32.182857-24.649143-30.500571-55.369143-28.745143-84.041143 3.657143-60.489143 19.821714-117.394286 61.220571-163.913143 15.579429-17.481143 20.845714-36.059429 23.917715-59.538285 6.582857-51.053714 16.749714-102.107429 31.158857-151.552A266.313143 266.313143 0 0 1 552.886857 93.622857a268.434286 268.434286 0 0 1 247.149714 213.504c10.605714 50.395429 17.115429 101.668571 28.306286 151.917714 3.364571 14.994286 15.067429 28.818286 24.868572 41.691429 40.301714 52.224 58.002286 111.835429 56.027428 176.859429z" fill="#3A5DAF" p-id="1627"></path></svg>