<?xml version="1.0" standalone="no"?><!DOCTYPE svg PUBLIC "-//W3C//DTD SVG 1.1//EN" "http://www.w3.org/Graphics/SVG/1.1/DTD/svg11.dtd"><svg t="1626143684866" class="icon" viewBox="0 0 1024 1024" version="1.1" xmlns="http://www.w3.org/2000/svg" p-id="1665" xmlns:xlink="http://www.w3.org/1999/xlink" width="200" height="200"><defs><style type="text/css"></style></defs><path d="M497.4875 648.63125001h24.525c6.1875 0 11.25 5.0625 11.25 11.24999998v29.30625001a11.25 11.25 0 0 1-11.25 11.25h-24.525a11.25 11.25 0 0 1-11.25-11.25v-29.30625001c0-6.1875 5.0625-11.25 11.25-11.25zM599.1875 353.15c-21.54375001-19.6875-50.45625001-29.5875-86.68125001-29.5875-34.2 0-49.21875001 2.8125-82.51874999 27.5625-19.85625001 14.68125001-31.95 37.35-36.28125001 67.89375001a11.25 11.25 0 0 0 9.7875 12.76874999l24.975 2.98125001a11.25 11.25 0 0 0 12.375-9.1125c4.1625-22.05 12.09375001-37.51875001 23.90625001-46.4625 20.25-15.46875001 29.1375-18.225 48.4875-18.225 20.08125001 0 37.0125 6.75 50.85 20.08124999 13.78125001 13.3875 20.7 28.96875001 20.7 46.6875a53.55 53.55 0 0 1-7.0875 27c-4.725 8.26875001-14.9625 19.35-30.7125 33.24375001a340.3125 340.3125 0 0 0-32.7375 31.72499998 105.35625001 105.35625001 0 0 0-17.94374999 29.58750002c-4.21875001 11.5875-6.6375 27.675-7.2 48.37499998a11.25 11.25 0 0 0 11.25 11.53125001h21.7125a11.25 11.25 0 0 0 11.25-10.575 186.1875 186.1875 0 0 1 3.20624999-28.85625001c2.19375001-8.1 5.56875001-15.24375001 10.125-21.4875 4.5-6.24375001 14.23125001-15.91875001 29.025-29.08124999 22.10625001-19.51875001 36.9-36.1125 44.49375001-49.78125001a90.5625 90.5625 0 0 0 11.3625-44.775c0-27.95625001-10.74375001-51.75-32.34375001-71.49374999z" fill="#8a8a8a" p-id="1666"></path><path d="M512.73125001 118.25a393.75 393.75 0 1 1 0 787.5 393.75 393.75 0 0 1 0-787.5z m0 39.375a354.375 354.375 0 1 0 0 708.75 354.375 354.375 0 0 0 0-708.75z" fill="#8a8a8a" p-id="1667"></path></svg>