<?xml version="1.0" standalone="no"?><!DOCTYPE svg PUBLIC "-//W3C//DTD SVG 1.1//EN" "http://www.w3.org/Graphics/SVG/1.1/DTD/svg11.dtd"><svg t="1620283023693" class="icon" viewBox="0 0 1024 1024" version="1.1" xmlns="http://www.w3.org/2000/svg" p-id="3119" xmlns:xlink="http://www.w3.org/1999/xlink" width="200" height="200"><defs><style type="text/css"></style></defs><path d="M77.531429 955.099429c0 23.990857-17.115429 43.446857-38.326858 43.446857-21.211429 0-38.4-19.456-38.4-43.446857V44.617143C0.731429 20.626286 17.993143 1.170286 39.204571 1.170286c21.211429 0 38.4 19.456 38.4 43.373714v910.628571zM345.380571 745.106286a61.732571 61.732571 0 0 1-123.465142 0V577.316571a61.732571 61.732571 0 1 1 123.465142 0v167.789715zM605.769143 745.106286a61.732571 61.732571 0 0 1-123.465143 0V177.737143a61.732571 61.732571 0 1 1 123.465143 0v567.296zM876.909714 745.106286a61.732571 61.732571 0 0 1-123.465143 0V495.177143a61.732571 61.732571 0 1 1 123.465143 0v249.856z" fill="#DDDDDD" p-id="3120"></path><path d="M53.248 998.838857c-25.014857 0-45.348571-17.188571-45.348571-38.4 0-21.211429 20.333714-38.4 45.348571-38.4h870.034286c25.014857 0 45.348571 17.188571 45.348571 38.4 0 21.211429-20.333714 38.4-45.348571 38.4H53.248z" fill="#DDDDDD" p-id="3121"></path></svg>