<?xml version="1.0" standalone="no"?><!DOCTYPE svg PUBLIC "-//W3C//DTD SVG 1.1//EN" "http://www.w3.org/Graphics/SVG/1.1/DTD/svg11.dtd"><svg t="1619451252254" class="icon" viewBox="0 0 1024 1024" version="1.1" xmlns="http://www.w3.org/2000/svg" p-id="2090" xmlns:xlink="http://www.w3.org/1999/xlink" width="200" height="200"><defs><style type="text/css"></style></defs><path d="M729.965714 148.260571l218.258286 378.148572-218.185143 378.294857H293.595429L75.410286 526.482286l218.185143-378.148572h436.443428zM729.965714 73.142857H293.668571c-26.770286 0-51.565714 14.336-64.950857 37.595429L10.093714 488.886857c-13.458286 23.259429-13.458286 51.931429 0 75.117714l218.550857 378.148572c13.385143 23.259429 38.180571 37.595429 64.950858 37.595428h436.443428c26.770286 0 51.565714-14.336 64.950857-37.522285l218.550857-378.148572c13.458286-23.259429 13.458286-51.931429 0-75.190857L795.062857 110.738286A75.117714 75.117714 0 0 0 730.038857 73.142857z" fill="#304281" p-id="2091"></path><path d="M511.780571 413.769143a112.64 112.64 0 1 1 0 225.353143 112.64 112.64 0 0 1 0-225.28z m0-75.044572a187.757714 187.757714 0 1 0 0 375.515429 187.757714 187.757714 0 0 0 0-375.515429z" fill="#7AD1CA" p-id="2092"></path></svg>