<?xml version="1.0" standalone="no"?><!DOCTYPE svg PUBLIC "-//W3C//DTD SVG 1.1//EN" "http://www.w3.org/Graphics/SVG/1.1/DTD/svg11.dtd"><svg t="1625556949836" class="icon" viewBox="0 0 1024 1024" version="1.1" xmlns="http://www.w3.org/2000/svg" p-id="1880" xmlns:xlink="http://www.w3.org/1999/xlink" width="200" height="200"><defs><style type="text/css"></style></defs><path d="M781.750857 0c87.771429 0 158.939429 71.094857 158.939429 158.866286v706.267428c0 87.771429-71.168 158.866286-158.939429 158.866286H305.152C217.380571 1024 146.285714 952.905143 146.285714 865.133714V158.866286C146.285714 71.094857 217.380571 0 305.152 0h476.598857z m0 79.433143H305.152c-42.057143 0-76.8 32.768-79.286857 74.752l-0.146286 4.681143v706.267428c0 42.057143 32.768 76.8 74.752 79.286857l4.681143 0.146286h476.598857c42.130286 0 76.873143-32.768 79.36-74.752l0.146286-4.681143V158.866286c0-42.057143-32.841143-76.8-74.825143-79.286857l-4.681143-0.146286zM543.451429 706.267429a79.433143 79.433143 0 1 1 0 158.866285 79.433143 79.433143 0 0 1 0-158.866285z m145.627428-547.401143a39.716571 39.716571 0 1 1 0 79.433143H397.897143a39.716571 39.716571 0 0 1 0-79.433143h291.254857z" fill="#3A5DAF" p-id="1881"></path></svg>